<svg width="100" height="64" viewBox="0 0 100 64" fill="none" xmlns="http://www.w3.org/2000/svg">
<path d="M49.7772 61.6501C66.1922 61.6501 79.4992 48.3431 79.4992 31.9281C79.4992 15.513 66.1922 2.20605 49.7772 2.20605C33.3622 2.20605 20.0552 15.513 20.0552 31.9281C20.0552 48.3431 33.3622 61.6501 49.7772 61.6501Z" stroke="#805DA7" stroke-width="3" stroke-miterlimit="10" stroke-linecap="round" stroke-linejoin="round"/>
<path d="M2 31.928C2 31.928 46.377 -35.411 98 31.928" stroke="#805DA7" stroke-width="3" stroke-miterlimit="10" stroke-linecap="round"/>
<path d="M2 32.5549C2 32.5549 46.377 99.8929 98 32.5549" stroke="#805DA7" stroke-width="3" stroke-miterlimit="10" stroke-linecap="round"/>
<path d="M49.5 44C55.8513 44 61 38.8513 61 32.5C61 26.1487 55.8513 21 49.5 21C43.1487 21 38 26.1487 38 32.5C38 38.8513 43.1487 44 49.5 44Z" stroke="#81DE76" stroke-width="8"/>
</svg>
