<svg width="97" height="96" viewBox="0 0 97 96" fill="none" xmlns="http://www.w3.org/2000/svg">
<path d="M51.8258 58.1189C51.8225 61.0374 50.9164 63.8834 49.2319 66.2666C47.5473 68.6498 45.1668 70.4535 42.4167 71.4305C39.6666 72.4074 36.6816 72.5098 33.871 71.7234C31.0605 70.9371 28.562 69.3006 26.7182 67.0383C24.8744 64.7761 23.7754 61.9989 23.5722 59.0875C23.3689 56.1761 24.0713 53.2731 25.5829 50.7766C27.0945 48.2801 29.3415 46.3124 32.0155 45.1432C34.6896 43.974 37.6598 43.6606 40.519 44.2459" stroke="#805DA7" stroke-width="3" stroke-miterlimit="10" stroke-linecap="round" stroke-linejoin="round"/>
<path d="M61.3021 51.102C62.8732 56.4088 62.6109 62.0902 60.5575 67.2297C58.5041 72.3693 54.7793 76.6673 49.984 79.4306C45.1887 82.1939 39.6024 83.2614 34.1261 82.4608C28.6498 81.6603 23.6026 79.0384 19.7989 75.018C15.9953 70.9977 13.6568 65.8133 13.1605 60.3011C12.6642 54.7888 14.0392 49.2701 17.0636 44.635C20.088 39.9999 24.5856 36.5187 29.8309 34.7529C35.0762 32.9871 40.7634 33.0396 45.9752 34.9019" stroke="#805DA7" stroke-width="3" stroke-miterlimit="10" stroke-linecap="round" stroke-linejoin="round"/>
<path d="M70.9409 45.2599C73.9046 52.9384 74.1192 61.406 71.5481 69.2247C68.977 77.0434 63.7789 83.7311 56.8364 88.1521C49.8939 92.573 41.6352 94.4545 33.4629 93.4772C25.2905 92.4998 17.7083 88.7238 12.0041 82.7904C6.29994 76.8571 2.82547 69.1322 2.17063 60.9277C1.5158 52.7232 3.72102 44.5449 8.41185 37.7819C13.1027 31.0188 19.9897 26.088 27.9035 23.8267C35.8174 21.5654 44.2701 22.1132 51.8259 25.3769" stroke="#805DA7" stroke-width="3" stroke-miterlimit="10" stroke-linecap="round" stroke-linejoin="round"/>
<path d="M37.1401 59.693L74.9031 21.93V14.587L87.49 2V8.29401H94.833L81.197 21.93H74.3792" stroke="#81DE76" stroke-width="3" stroke-miterlimit="10" stroke-linecap="round" stroke-linejoin="round"/>
</svg>
