<svg width="62" height="62" viewBox="0 0 62 62" fill="none" xmlns="http://www.w3.org/2000/svg">
<path d="M31.3629 7C36.1097 7 40.7498 8.40758 44.6966 11.0447C48.6434 13.6819 51.7195 17.4302 53.536 21.8156C55.3525 26.201 55.8278 31.0266 54.9018 35.6822C53.9757 40.3377 51.6899 44.6141 48.3335 47.9706C44.977 51.327 40.7006 53.6128 36.0451 54.5388C31.3895 55.4649 26.5639 54.9896 22.1785 53.1731C17.7931 51.3566 14.0448 48.2805 11.4076 44.3337C8.77049 40.3869 7.36292 35.7468 7.36292 31C7.36292 24.6348 9.89148 18.5303 14.3924 14.0294C18.8932 9.52856 24.9977 7 31.3629 7V7Z" fill="#81DE76"/>
<path d="M28.2611 40.56L19.8309 32.1299C19.5317 31.83 19.3636 31.4236 19.3636 31C19.3636 30.5763 19.5317 30.1699 19.8309 29.87L28.2611 21.4399" stroke="#1C232E" stroke-width="2" stroke-miterlimit="10" stroke-linecap="round" stroke-linejoin="round"/>
<path d="M35.4652 40.56L43.8949 32.1299C44.1941 31.83 44.3622 31.4236 44.3622 31C44.3622 30.5763 44.1941 30.1699 43.8949 29.87L35.4652 21.4399" stroke="#1C232E" stroke-width="2" stroke-miterlimit="10" stroke-linecap="round" stroke-linejoin="round"/>
<path d="M31.0001 2C27.1332 2 23.3831 2.75689 19.8538 4.24963C16.444 5.69188 13.3812 7.75701 10.7506 10.3876C8.11992 13.0183 6.05479 16.0811 4.61255 19.4909C3.1198 23.0202 2.36292 26.7703 2.36292 30.6372C2.36292 34.5041 3.1198 38.2542 4.61255 41.7835C6.05479 45.1933 8.11992 48.2561 10.7506 50.8868C13.3812 53.5174 16.444 55.5825 19.8538 57.0248C23.3831 58.5175 27.1332 59.2744 31.0001 59.2744C34.867 59.2744 38.6172 58.5175 42.1464 57.0248C45.5563 55.5825 48.619 53.5174 51.2497 50.8868C53.8803 48.2561 55.9454 45.1933 57.3877 41.7835C58.8804 38.2542 59.6373 34.5041 59.6373 30.6372C59.6373 26.7703 58.8804 23.0202 57.3877 19.4909C55.9454 16.0811 53.8803 13.0183 51.2497 10.3876C48.619 7.75701 45.5563 5.69188 42.1464 4.24963C38.6172 2.75689 34.867 2 31.0001 2ZM31.0001 0C47.9206 0 61.6373 13.7167 61.6373 30.6372C61.6373 47.5577 47.9206 61.2744 31.0001 61.2744C14.0797 61.2744 0.362915 47.5577 0.362915 30.6372C0.362915 13.7167 14.0797 0 31.0001 0Z" fill="#81DE76"/>
</svg>
