<svg width="61" height="64" viewBox="0 0 61 64" fill="none" xmlns="http://www.w3.org/2000/svg">
<path d="M44.4479 30.535C44.453 33.9487 43.1704 37.239 40.8566 39.749C40.3962 40.103 39.9753 40.5052 39.6007 40.949C38.3313 42.4466 37.636 44.3468 37.6388 46.31V47.244C37.6391 47.4705 37.5946 47.6948 37.5079 47.9041C37.4213 48.1134 37.2942 48.3035 37.1339 48.4636C36.9737 48.6237 36.7833 48.7505 36.5739 48.8369C36.3645 48.9233 36.1402 48.9675 35.9137 48.967H25.7448C25.5182 48.9674 25.294 48.9231 25.0846 48.8367C24.8752 48.7503 24.6849 48.6234 24.5245 48.4634C24.3642 48.3033 24.2368 48.1133 24.15 47.904C24.0633 47.6948 24.0187 47.4705 24.0187 47.244V46.31C24.0227 44.3467 23.3276 42.4462 22.0577 40.949C21.6834 40.505 21.2624 40.1027 20.8019 39.749C19.3035 38.1179 18.2257 36.1459 17.6618 34.0041C17.0978 31.8623 17.0647 29.6152 17.5656 27.4577C18.0664 25.3002 19.0859 23.2975 20.5358 21.6232C21.9856 19.9488 23.8222 18.6534 25.8859 17.8492C27.9496 17.045 30.1781 16.7564 32.3785 17.0083C34.579 17.2602 36.6848 18.045 38.5133 19.2948C40.3419 20.5445 41.8383 22.2214 42.8722 24.1801C43.9061 26.1388 44.4466 28.3201 44.4469 30.535H44.4479Z" stroke="#9474B6" stroke-width="3" stroke-miterlimit="10" stroke-linecap="round" stroke-linejoin="round"/>
<path d="M22.0585 40.952C21.6151 40.5787 21.1957 40.1779 20.8026 39.752C21.2632 40.1057 21.6841 40.508 22.0585 40.952V40.952Z" stroke="#9474B6" stroke-width="3" stroke-miterlimit="10" stroke-linecap="round" stroke-linejoin="round"/>
<path d="M40.8566 39.749C40.4637 40.1752 40.0443 40.576 39.6007 40.949C39.9753 40.5053 40.3962 40.103 40.8566 39.749V39.749Z" stroke="#9474B6" stroke-width="3" stroke-miterlimit="10" stroke-linecap="round" stroke-linejoin="round"/>
<path d="M24.0859 30.5349C24.0428 30.2462 24.0214 29.9548 24.022 29.6629C24.022 28.1512 24.6225 26.7014 25.6914 25.6324C26.7604 24.5634 28.2104 23.9629 29.7222 23.9629C30.0388 23.9623 30.3548 23.9884 30.667 24.0409" stroke="#9474B6" stroke-width="3" stroke-miterlimit="10" stroke-linecap="round" stroke-linejoin="round"/>
<path d="M36.639 55.4009H25.023C24.4701 55.4009 24.022 55.849 24.022 56.4019V60.7109C24.022 61.2637 24.4701 61.7119 25.023 61.7119H36.639C37.1918 61.7119 37.64 61.2637 37.64 60.7109V56.4019C37.64 55.849 37.1918 55.4009 36.639 55.4009Z" stroke="#9474B6" stroke-width="3" stroke-miterlimit="10" stroke-linecap="round" stroke-linejoin="round"/>
<path d="M45.061 16.2569L50.925 10.4409" stroke="#9474B6" stroke-width="3" stroke-miterlimit="10" stroke-linecap="round"/>
<path d="M10.4028 50.6299L16.4958 44.5869" stroke="#9474B6" stroke-width="3" stroke-miterlimit="10" stroke-linecap="round"/>
<path d="M44.875 44.7458L50.843 50.7138" stroke="#9474B6" stroke-width="3" stroke-miterlimit="10" stroke-linecap="round"/>
<path d="M10.4858 10.3569L16.6218 16.4929" stroke="#9474B6" stroke-width="3" stroke-miterlimit="10" stroke-linecap="round"/>
<path d="M50.7207 30.5349H59.1997" stroke="#9474B6" stroke-width="3" stroke-miterlimit="10" stroke-linecap="round"/>
<path d="M2.12793 30.5349H10.8069" stroke="#9474B6" stroke-width="3" stroke-miterlimit="10" stroke-linecap="round"/>
<path d="M30.6641 10.4989V1.9989" stroke="#9474B6" stroke-width="3" stroke-miterlimit="10" stroke-linecap="round"/>
</svg>
