<svg width="65" height="64" viewBox="0 0 65 64" fill="none" xmlns="http://www.w3.org/2000/svg">
<path d="M57.018 2H7.99097C4.67726 2 1.99097 4.68629 1.99097 8V55.544C1.99097 58.8577 4.67726 61.544 7.99097 61.544H57.018C60.3317 61.544 63.018 58.8577 63.018 55.544V8C63.018 4.68629 60.3317 2 57.018 2Z" stroke="#9474B6" stroke-width="3" stroke-miterlimit="10"/>
<path d="M2.28906 13.96H63.3161" stroke="#9474B6" stroke-width="3" stroke-miterlimit="10"/>
<path d="M14.742 10.336C15.8929 10.336 16.826 9.40293 16.826 8.25197C16.826 7.10101 15.8929 6.16797 14.742 6.16797C13.591 6.16797 12.658 7.10101 12.658 8.25197C12.658 9.40293 13.591 10.336 14.742 10.336Z" fill="#9474B6"/>
<path d="M20.19 10.336C21.3409 10.336 22.274 9.40293 22.274 8.25197C22.274 7.10101 21.3409 6.16797 20.19 6.16797C19.039 6.16797 18.106 7.10101 18.106 8.25197C18.106 9.40293 19.039 10.336 20.19 10.336Z" fill="#9474B6"/>
<path d="M9.29396 10.336C10.4449 10.336 11.378 9.40293 11.378 8.25197C11.378 7.10101 10.4449 6.16797 9.29396 6.16797C8.143 6.16797 7.20996 7.10101 7.20996 8.25197C7.20996 9.40293 8.143 10.336 9.29396 10.336Z" fill="#9474B6"/>
<path d="M27.8889 46.56L19.4587 38.1299C19.1595 37.83 18.9915 37.4236 18.9915 37C18.9915 36.5763 19.1595 36.1699 19.4587 35.87L27.8889 27.4399" stroke="#9474B6" stroke-width="3" stroke-miterlimit="10" stroke-linecap="round" stroke-linejoin="round"/>
<path d="M35.093 46.56L43.5227 38.1299C43.8219 37.83 43.99 37.4236 43.99 37C43.99 36.5763 43.8219 36.1699 43.5227 35.87L35.093 27.4399" stroke="#9474B6" stroke-width="3" stroke-miterlimit="10" stroke-linecap="round" stroke-linejoin="round"/>
</svg>
