<svg width="62" height="62" viewBox="0 0 62 62" fill="none" xmlns="http://www.w3.org/2000/svg">
<path d="M31 6.63696C35.7468 6.63696 40.3869 8.04454 44.3337 10.6817C48.2805 13.3188 51.3566 17.0671 53.1731 21.4526C54.9896 25.838 55.4649 30.6636 54.5388 35.3191C53.6128 39.9747 51.327 44.2511 47.9706 47.6075C44.6141 50.964 40.3377 53.2498 35.6822 54.1758C31.0266 55.1019 26.201 54.6266 21.8156 52.8101C17.4302 50.9936 13.6819 47.9174 11.0447 43.9706C8.40758 40.0239 7 35.3837 7 30.637C7 24.2718 9.52856 18.1673 14.0294 13.6664C18.5303 9.16553 24.6348 6.63696 31 6.63696V6.63696Z" fill="#81DE76"/>
<path d="M27.0491 32.3918L34.0831 32.3978" stroke="#1C232E" stroke-width="1.5" stroke-miterlimit="10" stroke-linecap="round"/>
<path d="M27.4968 19.229H33.4828V22.222C33.4828 23.0158 33.1675 23.7771 32.6062 24.3384C32.0449 24.8997 31.2836 25.215 30.4898 25.215V25.215C29.696 25.215 28.9348 24.8997 28.3735 24.3384C27.8122 23.7771 27.4968 23.0158 27.4968 22.222V19.229Z" stroke="#1C232E" stroke-width="1.5" stroke-miterlimit="10" stroke-linecap="round" stroke-linejoin="round"/>
<path d="M33.4801 24.0168L41.8249 39.8808C42.1722 40.7011 42.243 41.6121 42.0265 42.4762C41.81 43.3403 41.3182 44.1103 40.6251 44.6698L31.047 26.1128H30.1857L20.6081 44.6698C19.915 44.1103 19.4227 43.3403 19.2062 42.4762C18.9897 41.6121 19.0605 40.7011 19.4079 39.8808L28.088 24.0168" stroke="#1C232E" stroke-width="1.5" stroke-miterlimit="10" stroke-linecap="round" stroke-linejoin="round"/>
<path d="M31.9869 15.2219H28.9939V18.8139H31.9869V15.2219Z" stroke="#1C232E" stroke-width="1.5" stroke-miterlimit="10" stroke-linecap="round" stroke-linejoin="round"/>
<path d="M30.5662 22.7219C30.8423 22.7219 31.0662 22.4981 31.0662 22.2219C31.0662 21.9458 30.8423 21.7219 30.5662 21.7219C30.29 21.7219 30.0662 21.9458 30.0662 22.2219C30.0662 22.4981 30.29 22.7219 30.5662 22.7219Z" fill="#1C232E"/>
<path d="M31.0001 2C27.1332 2 23.3831 2.75689 19.8538 4.24963C16.444 5.69188 13.3812 7.75701 10.7506 10.3876C8.11992 13.0183 6.05479 16.0811 4.61255 19.4909C3.1198 23.0202 2.36292 26.7703 2.36292 30.6372C2.36292 34.5041 3.1198 38.2542 4.61255 41.7835C6.05479 45.1933 8.11992 48.2561 10.7506 50.8868C13.3812 53.5174 16.444 55.5825 19.8538 57.0248C23.3831 58.5175 27.1332 59.2744 31.0001 59.2744C34.867 59.2744 38.6172 58.5175 42.1464 57.0248C45.5563 55.5825 48.619 53.5174 51.2497 50.8868C53.8803 48.2561 55.9454 45.1933 57.3877 41.7835C58.8804 38.2542 59.6373 34.5041 59.6373 30.6372C59.6373 26.7703 58.8804 23.0202 57.3877 19.4909C55.9454 16.0811 53.8803 13.0183 51.2497 10.3876C48.619 7.75701 45.5563 5.69188 42.1464 4.24963C38.6172 2.75689 34.867 2 31.0001 2ZM31.0001 0C47.9206 0 61.6373 13.7167 61.6373 30.6372C61.6373 47.5577 47.9206 61.2744 31.0001 61.2744C14.0797 61.2744 0.362915 47.5577 0.362915 30.6372C0.362915 13.7167 14.0797 0 31.0001 0Z" fill="#81DE76"/>
</svg>
