<svg width="58" height="62" viewBox="0 0 58 62" fill="none" xmlns="http://www.w3.org/2000/svg">
<path d="M11.715 44.1959C9.67719 39.802 9.35229 34.8058 10.8039 30.1849C12.2554 25.5641 15.3791 21.6512 19.5635 19.2119C23.7478 16.7726 28.6918 15.9825 33.428 16.9961C38.1642 18.0098 42.3518 20.7542 45.1712 24.6925C47.9907 28.6308 49.2391 33.4794 48.6723 38.2896C48.1054 43.0998 45.7641 47.5254 42.1064 50.7003C38.4487 53.8753 33.7378 55.5711 28.8957 55.456C24.0536 55.3409 19.4287 53.4231 15.926 50.0779" stroke="#9474B6" stroke-width="3" stroke-miterlimit="10" stroke-linecap="round"/>
<path d="M29.3511 55.433L55.6061 55.462" stroke="#9474B6" stroke-width="3" stroke-miterlimit="10" stroke-linecap="round"/>
<path d="M10.479 31.43C7.61147 30.4827 5.17533 28.5445 3.60772 25.9633C2.04012 23.3821 1.44364 20.3268 1.92529 17.3455C2.40694 14.3642 3.93523 11.6521 6.2359 9.69581C8.53657 7.73954 11.4591 6.66717 14.479 6.67103" stroke="#9474B6" stroke-width="3" stroke-miterlimit="10" stroke-linecap="round"/>
<path d="M51.3711 50.689L56.2071 55.4L51.4961 60.236" stroke="#9474B6" stroke-width="3" stroke-miterlimit="10" stroke-linecap="round" stroke-linejoin="round"/>
<path d="M14.8531 39.147L11.7451 44.707L6.18506 41.599" stroke="#9474B6" stroke-width="3" stroke-miterlimit="10" stroke-linecap="round"/>
<path d="M8.38403 2L15.636 6.17603L11.46 13.428" stroke="#9474B6" stroke-width="3" stroke-miterlimit="10" stroke-linecap="round"/>
</svg>
