<svg width="62" height="62" viewBox="0 0 62 62" fill="none" xmlns="http://www.w3.org/2000/svg">
<path d="M31.3629 55C44.6177 55 55.3629 44.2548 55.3629 31C55.3629 17.7452 44.6177 7 31.3629 7C18.1081 7 7.36292 17.7452 7.36292 31C7.36292 44.2548 18.1081 55 31.3629 55Z" fill="#81DE76"/>
<path d="M31.0001 2C27.1332 2 23.3831 2.75689 19.8538 4.24963C16.444 5.69188 13.3812 7.75701 10.7506 10.3876C8.11992 13.0183 6.05479 16.0811 4.61255 19.4909C3.1198 23.0202 2.36292 26.7703 2.36292 30.6372C2.36292 34.5041 3.1198 38.2542 4.61255 41.7835C6.05479 45.1933 8.11992 48.2561 10.7506 50.8868C13.3812 53.5174 16.444 55.5825 19.8538 57.0248C23.3831 58.5175 27.1332 59.2744 31.0001 59.2744C34.867 59.2744 38.6172 58.5175 42.1464 57.0248C45.5563 55.5825 48.619 53.5174 51.2497 50.8868C53.8803 48.2561 55.9454 45.1933 57.3877 41.7835C58.8804 38.2542 59.6373 34.5041 59.6373 30.6372C59.6373 26.7703 58.8804 23.0202 57.3877 19.4909C55.9454 16.0811 53.8803 13.0183 51.2497 10.3876C48.619 7.75701 45.5563 5.69188 42.1464 4.24963C38.6172 2.75689 34.867 2 31.0001 2ZM31.0001 0C47.9206 0 61.6373 13.7167 61.6373 30.6372C61.6373 47.5577 47.9206 61.2744 31.0001 61.2744C14.0797 61.2744 0.362915 47.5577 0.362915 30.6372C0.362915 13.7167 14.0797 0 31.0001 0Z" fill="#81DE76"/>
<path d="M37.5208 30.375C37.5231 31.9902 36.9158 33.5469 35.8206 34.734C35.6028 34.9019 35.4039 35.0927 35.2268 35.303C34.6264 36.0115 34.2972 36.9103 34.2986 37.839V38.281C34.2986 38.3881 34.2776 38.4942 34.2366 38.5931C34.1956 38.6921 34.1356 38.782 34.0598 38.8577C33.984 38.9334 33.8942 38.9934 33.7952 39.0343C33.6962 39.0752 33.5898 39.0962 33.4827 39.096H28.6717C28.5645 39.0962 28.4586 39.0752 28.3596 39.0343C28.2606 38.9934 28.1708 38.9334 28.095 38.8577C28.0192 38.782 27.9588 38.6921 27.9177 38.5931C27.8767 38.4942 27.8557 38.3881 27.8557 38.281V37.839C27.8574 36.9103 27.5287 36.0113 26.928 35.303C26.7509 35.0927 26.5515 34.902 26.3338 34.734C25.6249 33.9624 25.1147 33.0295 24.8479 32.0162C24.5811 31.003 24.5656 29.9399 24.8025 28.9192C25.0394 27.8985 25.5219 26.951 26.2078 26.1589C26.8937 25.3668 27.7622 24.7539 28.7385 24.3735C29.7149 23.993 30.7693 23.8565 31.8103 23.9756C32.8513 24.0948 33.8476 24.4661 34.7127 25.0574C35.5777 25.6486 36.2855 26.4419 36.7747 27.3686C37.2638 28.2952 37.5197 29.3272 37.5198 30.375H37.5208Z" stroke="#1C232E" stroke-width="1.5" stroke-miterlimit="10" stroke-linecap="round" stroke-linejoin="round"/>
<path d="M26.9291 35.307C26.7192 35.1301 26.5206 34.9401 26.3348 34.738C26.5526 34.906 26.752 35.0967 26.9291 35.307V35.307Z" stroke="#1C232E" stroke-width="1.5" stroke-miterlimit="10" stroke-linecap="round" stroke-linejoin="round"/>
<path d="M35.8217 34.7341C35.6359 34.9362 35.4378 35.1262 35.2279 35.3031C35.405 35.0928 35.6039 34.902 35.8217 34.7341V34.7341Z" stroke="#1C232E" stroke-width="1.5" stroke-miterlimit="10" stroke-linecap="round" stroke-linejoin="round"/>
<path d="M27.8876 30.3749C27.8669 30.2386 27.8567 30.1009 27.8568 29.963C27.8568 29.2469 28.1415 28.5601 28.6478 28.0538C29.1542 27.5474 29.8409 27.2629 30.557 27.2629C30.7068 27.2627 30.8561 27.2751 31.0038 27.3" stroke="#1C232E" stroke-width="1.5" stroke-miterlimit="10" stroke-linecap="round" stroke-linejoin="round"/>
<path d="M33.2978 42.1389H28.8578C28.305 42.1389 27.8568 42.5871 27.8568 43.1399V44.1239C27.8568 44.6768 28.305 45.1249 28.8578 45.1249H33.2978C33.8506 45.1249 34.2988 44.6768 34.2988 44.1239V43.1399C34.2988 42.5871 33.8506 42.1389 33.2978 42.1389Z" stroke="#1C232E" stroke-width="1.5" stroke-miterlimit="10" stroke-linecap="round" stroke-linejoin="round"/>
<path d="M37.8109 23.6199L40.5849 20.8689" stroke="#1C232E" stroke-width="1.5" stroke-miterlimit="10" stroke-linecap="round"/>
<path d="M21.4149 39.8819L24.2979 37.0229" stroke="#1C232E" stroke-width="1.5" stroke-miterlimit="10" stroke-linecap="round"/>
<path d="M37.723 37.0979L40.546 39.9209" stroke="#1C232E" stroke-width="1.5" stroke-miterlimit="10" stroke-linecap="round"/>
<path d="M21.454 20.8291L24.357 23.7321" stroke="#1C232E" stroke-width="1.5" stroke-miterlimit="10" stroke-linecap="round"/>
<path d="M40.4886 30.375H44.4996" stroke="#1C232E" stroke-width="1.5" stroke-miterlimit="10" stroke-linecap="round"/>
<path d="M17.4999 30.375H21.6059" stroke="#1C232E" stroke-width="1.5" stroke-miterlimit="10" stroke-linecap="round"/>
<path d="M30.9999 20.896V16.875" stroke="#1C232E" stroke-width="1.5" stroke-miterlimit="10" stroke-linecap="round"/>
</svg>
