<svg width="50" height="64" viewBox="0 0 50 64" fill="none" xmlns="http://www.w3.org/2000/svg">
<path d="M16.1899 34.0231L14.3259 29.7051C10.3058 31.9252 7.33228 35.6514 6.05947 40.064C4.78667 44.4765 5.31885 49.2139 7.53894 53.2341C7.69094 53.5094 7.85061 53.7807 8.01794 54.0481L11.8279 51.1651C10.1915 48.2996 9.73166 44.9107 10.5454 41.7127C11.3592 38.5148 13.3829 35.7578 16.1899 34.0231Z" fill="white" stroke="#222A36" stroke-miterlimit="10"/>
<path d="M19.795 32.506C22.9887 31.7072 26.3675 32.173 29.226 33.806L32.326 30.453C30.2199 29.0492 27.8317 28.124 25.3294 27.7425C22.8272 27.3611 20.2718 27.5326 17.843 28.245L19.795 32.506Z" fill="white" stroke="#222A36" stroke-miterlimit="10"/>
<path d="M32.1619 36.117C34.5466 38.511 35.8826 41.7542 35.8761 45.1333C35.8695 48.5123 34.5209 51.7503 32.1269 54.135C29.733 56.5197 26.4897 57.8557 23.1107 57.8492C19.7317 57.8426 16.4936 56.494 14.1089 54.1L10.4089 57.1C13.657 60.1741 17.9669 61.8749 22.4389 61.8476C26.9109 61.8202 31.1997 60.0668 34.4099 56.9533C37.6202 53.8398 39.504 49.6067 39.6682 45.1376C39.8323 40.6685 38.2641 36.3087 35.2909 32.968L32.1619 36.117Z" fill="white" stroke="#222A36" stroke-miterlimit="10"/>
<path d="M43.752 16.959C42.0677 16.5172 40.2767 16.7624 38.7731 17.6408C37.2695 18.5192 36.1764 19.9588 35.734 21.643C35.6899 21.8041 35.6542 21.9673 35.627 22.132L30.896 21.732C30.7688 20.8615 30.3253 20.0684 29.6501 19.5043C28.975 18.9402 28.1156 18.6447 27.2363 18.6743C26.3571 18.7039 25.5195 19.0565 24.8838 19.6647C24.2481 20.2729 23.8589 21.094 23.7905 21.9711C23.722 22.8482 23.9793 23.7198 24.513 24.4192C25.0467 25.1186 25.8194 25.5968 26.6835 25.7624C27.5476 25.9279 28.4423 25.7692 29.1968 25.3167C29.9512 24.8641 30.5124 24.1493 30.773 23.309L35.504 23.59C35.5652 24.9919 36.0725 26.3377 36.952 27.431L33.312 31.159L30.158 34.395L27.594 37.022C26.7786 36.4942 25.8844 36.0993 24.945 35.852C23.36 35.4337 21.6913 35.4523 20.116 35.906L18.706 32.818L16.776 28.585L16.066 27.033C16.9447 26.3771 17.6751 25.5431 18.2094 24.5856C18.7437 23.6281 19.0699 22.5685 19.1667 21.4763C19.2634 20.384 19.1285 19.2837 18.7709 18.2471C18.4132 17.2106 17.8408 16.2612 17.091 15.461L21.068 10.161C22.1513 10.7403 23.4134 10.8889 24.6015 10.5769C25.7897 10.2649 26.816 9.51547 27.4749 8.47872C28.1338 7.44197 28.3765 6.19451 28.1545 4.98634C27.9324 3.77817 27.262 2.69853 26.2776 1.96378C25.2931 1.22904 24.0674 0.893458 22.846 1.0243C21.6246 1.15514 20.4977 1.74273 19.6912 2.66932C18.8848 3.59592 18.4582 4.79306 18.4971 6.02085C18.536 7.24864 19.0375 8.41637 19.901 9.29004L16.052 14.524C14.9409 13.6995 13.6306 13.1851 12.2553 13.0335C10.8801 12.8819 9.48917 13.0986 8.22517 13.6614C6.96116 14.2242 5.86945 15.1128 5.06185 16.2363C4.25425 17.3597 3.75977 18.6777 3.62907 20.0551C3.49837 21.4326 3.73613 22.82 4.31802 24.0753C4.8999 25.3307 5.80499 26.4088 6.94059 27.1992C8.07619 27.9897 9.40149 28.4641 10.7808 28.5739C12.16 28.6837 13.5437 28.4249 14.79 27.824L15.399 29.171L17.31 33.423L18.679 36.47C17.4757 37.0519 16.4148 37.8911 15.5715 38.9281C14.7282 39.9652 14.1229 41.1749 13.7986 42.4716C13.4743 43.7683 13.4388 45.1205 13.6946 46.4324C13.9504 47.7444 14.4913 48.9841 15.279 50.064L12.503 52.199L8.73403 55.099L7.95803 55.699C7.62863 55.3943 7.25124 55.146 6.84104 54.964C6.63764 54.8696 6.42653 54.7926 6.21003 54.734C5.29813 54.4898 4.33013 54.565 3.46687 54.9471C2.6036 55.3291 1.89706 55.9951 1.46465 56.8343C1.03224 57.6735 0.900002 58.6353 1.0899 59.5601C1.27979 60.4848 1.7804 61.3167 2.50852 61.9176C3.23665 62.5184 4.14845 62.8521 5.09242 62.863C6.03639 62.874 6.95568 62.5616 7.69755 61.9778C8.43941 61.394 8.95917 60.5739 9.17046 59.6538C9.38176 58.7337 9.27186 57.769 8.85903 56.92L9.68803 56.289L13.495 53.428L16.353 51.283C18.1126 52.8979 20.435 53.7587 22.822 53.681C25.209 53.6032 27.4705 52.5931 29.1213 50.8672C30.7721 49.1413 31.6807 46.8371 31.6522 44.449C31.6238 42.0609 30.6605 39.7791 28.969 38.093L31.492 35.444L34.57 32.211L38.09 28.511C38.8608 29.1074 39.7547 29.5247 40.7068 29.7327C41.659 29.9407 42.6454 29.9342 43.5947 29.7137C44.544 29.4931 45.4323 29.064 46.1952 28.4575C46.958 27.851 47.5764 27.0824 48.0053 26.2073C48.4342 25.3321 48.663 24.3725 48.675 23.398C48.687 22.4235 48.482 21.4586 48.0748 20.5732C47.6676 19.6877 47.0684 18.904 46.3207 18.2789C45.573 17.6538 44.6956 17.203 43.752 16.959Z" fill="white" stroke="white" stroke-miterlimit="10"/>
</svg>
